<?xml version="1.0" standalone="no"?>
<!DOCTYPE svg PUBLIC "-//W3C//DTD SVG 20010904//EN"
 "http://www.w3.org/TR/2001/REC-SVG-20010904/DTD/svg10.dtd">
<svg version="1.0" xmlns="http://www.w3.org/2000/svg"
 width="670.000000pt" height="402.000000pt" viewBox="0 0 670.000000 402.000000"
 preserveAspectRatio="xMidYMid meet">
<metadata>
Created by potrace 1.16, written by Peter Selinger 2001-2019
</metadata>
<g transform="translate(0.000000,402.000000) scale(0.100000,-0.100000)"
fill="#000000" stroke="none">
<path d="M344 3903 c-47 -65 -107 -147 -133 -182 -79 -110 -93 -122 -132 -111
-49 14 -79 12 -79 -5 0 -8 6 -15 13 -15 9 0 9 -2 -1 -8 -17 -11 -13 -114 5
-108 9 4 8 -6 -3 -36 -12 -34 -14 -172 -14 -848 l0 -807 21 -19 c22 -19 22
-19 11 2 -13 25 -25 84 -17 84 16 0 54 -51 60 -81 5 -19 10 -28 13 -21 3 9 11
2 24 -18 21 -35 17 -50 -7 -30 -9 7 -18 10 -21 8 -3 -3 9 -12 26 -19 21 -10
28 -19 24 -29 -20 -45 -16 -77 16 -114 18 -20 28 -36 24 -36 -5 -1 3 -11 19
-23 l27 -23 -24 -59 c-13 -33 -28 -60 -32 -60 -15 0 -16 35 -2 36 19 1 -34 23
-57 23 -20 1 -40 -19 -85 -83 -19 -27 -21 -37 -12 -52 8 -12 8 -19 2 -19 -6 0
-10 -27 -10 -62 0 -56 3 -65 28 -85 l27 -22 -27 -1 c-28 0 -28 -1 -28 -63 l0
-63 147 -54 c81 -30 151 -56 155 -58 4 -2 24 20 45 50 l38 53 3 -48 c2 -26 8
-47 13 -47 6 0 8 -3 5 -8 -2 -4 4 -25 14 -47 11 -22 19 -45 20 -52 0 -6 3 -13
8 -15 4 -2 16 -21 26 -43 19 -38 86 -136 113 -163 7 -7 9 -20 6 -29 -5 -12 -2
-15 10 -10 19 7 131 -55 120 -66 -10 -11 -25 -8 -18 3 3 6 1 10 -5 10 -7 0
-10 -7 -7 -15 4 -8 2 -17 -3 -20 -17 -10 21 -56 40 -50 10 3 21 1 25 -5 9 -15
51 -12 65 5 10 13 15 13 21 3 6 -10 9 -9 14 3 9 23 64 12 76 -15 14 -33 33
-60 47 -69 7 -5 10 -12 7 -16 -2 -5 2 -14 9 -20 19 -16 32 5 15 25 -10 12 -9
16 9 21 36 9 25 25 -15 21 -24 -2 -38 2 -41 11 -3 10 2 13 21 9 22 -4 26 -1
32 26 5 28 7 29 19 14 9 -13 22 -16 48 -12 24 4 39 1 51 -10 8 -9 20 -16 26
-16 5 0 13 -9 16 -20 3 -11 13 -20 20 -20 10 0 12 -9 8 -34 -3 -19 0 -42 6
-52 9 -17 10 -16 11 8 0 31 34 68 63 68 30 0 57 -19 51 -35 -4 -8 -1 -15 6
-15 10 0 10 -3 0 -15 -10 -12 -10 -15 0 -15 6 0 14 9 17 20 3 11 9 20 14 20 5
0 9 7 9 15 0 8 4 15 9 15 5 0 8 8 7 18 0 9 6 17 14 17 9 0 15 -9 14 -22 0 -13
3 -23 8 -23 4 0 8 5 8 10 0 6 10 10 23 10 20 1 20 2 5 11 -29 17 -21 32 12 25
25 -5 32 -2 39 16 l8 22 6 -23 c6 -24 27 -20 27 5 0 30 28 13 34 -21 4 -19 12
-35 19 -35 7 0 6 -4 -3 -10 -13 -8 -12 -10 3 -10 9 0 23 11 29 25 6 14 17 25
25 25 7 0 13 7 13 16 0 12 7 14 28 9 35 -7 54 12 50 51 -2 17 2 29 12 32 13 4
13 3 2 -10 -15 -19 -2 -31 22 -22 11 4 16 0 16 -14 0 -12 5 -24 10 -27 6 -4 8
-10 5 -15 -3 -5 0 -12 6 -15 6 -4 13 2 16 14 3 14 12 20 27 18 18 -2 21 3 18
29 -4 41 38 92 59 72 36 -36 61 -23 72 37 2 12 9 18 18 16 27 -7 64 -11 52 -5
-23 10 -14 23 20 26 21 2 31 8 29 17 -2 10 5 12 27 9 17 -2 28 -1 26 3 -7 11
35 19 107 19 69 0 98 -6 98 -21 0 -4 -7 -6 -15 -3 -8 4 -15 1 -15 -5 0 -6 5
-11 10 -11 6 0 10 -7 10 -15 0 -22 17 -18 30 6 15 28 45 20 45 -11 0 -14 5
-25 12 -25 6 0 15 -3 19 -8 4 -4 2 -7 -4 -7 -7 0 -12 -9 -12 -21 0 -13 4 -18
11 -13 18 11 2 -43 -23 -76 -32 -44 -97 -86 -184 -120 -43 -17 -89 -35 -101
-40 -52 -22 -71 -29 -123 -46 -30 -9 -57 -20 -60 -24 -3 -4 -12 -10 -20 -13
-37 -15 71 8 118 25 29 11 62 18 72 15 11 -3 19 -2 18 2 0 3 0 13 1 21 1 13 2
13 11 0 8 -13 11 -12 23 4 9 12 20 17 30 13 9 -3 16 -3 16 1 -3 20 2 25 12 12
7 -10 12 -11 15 -4 3 7 13 10 23 7 11 -3 31 3 45 12 16 10 26 13 26 6 0 -6 5
-11 11 -11 5 0 8 4 4 9 -3 5 4 12 15 16 11 3 20 11 20 16 0 5 7 9 15 9 8 0 15
5 15 12 0 6 3 9 6 5 4 -3 23 12 44 34 36 39 37 42 33 102 -5 98 -7 104 -32
126 -13 12 -28 21 -32 21 -5 0 -6 7 -3 15 4 8 14 15 24 15 16 0 36 27 27 36
-4 4 -63 -14 -89 -27 -18 -9 -48 -2 -48 10 0 4 -25 6 -55 4 -31 -2 -65 2 -76
8 -30 15 -17 22 15 8 35 -16 50 -2 37 34 -9 23 -8 27 6 27 9 0 24 7 34 16 16
15 19 14 39 -4 13 -12 19 -26 15 -33 -5 -7 -3 -10 6 -7 21 8 12 48 -17 77 -14
14 -21 27 -15 29 6 2 11 10 11 18 0 17 16 18 26 2 4 -6 2 -14 -4 -16 -15 -5
-16 -32 -2 -32 6 0 10 7 10 15 0 10 10 15 28 15 24 1 25 2 10 14 -11 8 -18 26
-18 45 0 38 20 42 21 4 0 -25 1 -26 9 -8 8 18 9 18 9 2 1 -10 9 -21 19 -24 9
-4 23 -13 30 -20 7 -7 22 -13 33 -13 10 0 19 -7 19 -15 0 -8 5 -15 10 -15 6 0
10 4 10 9 0 5 9 11 20 14 19 5 26 -7 21 -36 -2 -16 53 -29 77 -18 28 13 32 14
32 2 0 -5 -9 -13 -20 -16 -26 -8 -26 -25 -1 -25 27 0 34 -15 19 -41 -10 -17
-10 -23 0 -26 18 -7 4 -23 -21 -23 -16 0 -19 3 -8 9 7 5 10 14 7 20 -12 19
-28 0 -22 -25 5 -17 2 -24 -9 -24 -8 0 -15 -4 -15 -10 0 -16 27 -12 34 5 7 19
21 19 40 -1 9 -8 20 -13 25 -10 15 10 39 -4 44 -25 3 -10 1 -19 -4 -19 -5 0
-9 7 -9 15 0 8 -4 15 -10 15 -5 0 -10 -13 -10 -30 0 -29 1 -30 50 -30 29 0 50
-5 50 -11 0 -16 30 -43 38 -34 4 4 1 10 -5 12 -18 7 -16 40 3 47 24 9 37 -4
18 -19 -16 -12 -16 -13 4 -24 13 -7 19 -17 16 -26 -4 -11 1 -15 17 -15 23 -1
23 -1 5 -15 -20 -15 -20 -15 0 -30 10 -8 23 -15 28 -15 6 0 5 -5 -1 -11 -12
-12 -55 12 -83 46 -7 8 -16 15 -21 15 -15 0 -10 -22 9 -36 16 -12 16 -13 -2
-20 -10 -4 -21 -2 -25 3 -10 16 -49 25 -56 13 -12 -20 -35 -10 -35 15 0 14 -4
25 -9 25 -5 0 -7 -9 -4 -20 4 -15 0 -20 -13 -21 -12 0 -14 -3 -6 -6 10 -4 9
-8 -4 -17 -19 -14 -11 -36 12 -36 18 0 18 -14 -1 -30 -9 -7 -15 -29 -15 -50 0
-21 -6 -41 -12 -44 -7 -3 1 -4 17 -1 17 2 24 2 18 -1 -7 -3 -13 -12 -13 -19 0
-14 -29 -29 -38 -20 -3 3 0 5 7 5 7 0 9 5 6 11 -4 5 -19 9 -33 7 -19 -2 -27 2
-27 12 0 8 6 14 14 12 12 -3 12 -1 1 13 -9 11 -22 14 -37 10 -15 -3 -23 -1
-23 7 0 10 -2 10 -9 0 -6 -10 -10 -10 -21 2 -7 9 -16 14 -20 11 -13 -8 2 -55
17 -55 8 0 11 5 8 10 -3 6 1 10 9 10 9 0 16 -8 16 -19 0 -20 -48 -51 -79 -51
-14 0 -14 -2 -1 -10 11 -7 12 -10 2 -10 -7 0 -21 7 -29 16 -12 11 -18 12 -23
4 -6 -9 -13 -9 -30 0 -24 13 -90 5 -90 -10 0 -6 7 -10 15 -10 8 0 15 5 15 10
0 13 41 13 60 -1 12 -8 10 -9 -7 -4 -19 5 -23 2 -23 -14 0 -12 -6 -21 -16 -21
-8 0 -12 5 -9 10 9 15 -56 11 -85 -5 -21 -12 -22 -14 -6 -15 38 0 -1 -17 -45
-19 -8 -1 -24 -8 -35 -16 -17 -13 99 -14 1011 -12 567 2 1038 5 1048 8 10 3
22 10 25 16 10 14 52 23 49 11 -1 -6 4 -13 11 -15 9 -3 12 1 10 12 -2 10 3 20
10 22 6 3 12 0 12 -6 0 -6 7 -11 16 -11 10 0 14 6 10 15 -3 8 -1 15 4 15 6 0
10 -4 10 -10 0 -5 6 -8 13 -6 6 3 25 7 41 11 24 5 27 8 15 17 -11 7 -8 8 10 4
23 -5 56 16 44 28 -3 3 2 9 12 12 10 4 20 1 25 -7 7 -11 10 -10 16 5 6 16 39
35 56 32 4 0 15 9 24 22 9 13 22 21 30 18 8 -3 13 -2 11 3 -1 4 12 20 29 34
17 14 42 48 55 74 13 26 26 50 29 53 3 3 10 23 15 45 6 25 17 41 27 43 14 3
314 -88 503 -152 22 -8 87 -28 145 -46 141 -43 651 -206 721 -230 47 -17 83
-20 228 -20 l171 0 0 326 c0 289 -2 325 -15 314 -11 -9 -15 -9 -15 -1 0 6 7
14 15 17 20 8 22 189 3 198 -10 5 -10 7 0 12 10 4 12 224 12 1065 0 582 -2
1059 -5 1059 -2 0 -30 7 -62 15 -118 31 -285 65 -294 59 -6 -3 -16 0 -24 6 -8
7 -22 9 -31 6 -9 -4 -24 0 -33 8 -9 7 -47 21 -86 29 -66 14 -166 39 -300 73
-33 9 -80 17 -105 19 -24 2 -46 7 -48 13 -1 5 -12 7 -24 5 -11 -4 -24 0 -28 8
-6 8 -29 14 -62 15 -67 2 -108 13 -108 29 0 8 -8 11 -20 8 -11 -3 -20 0 -20 6
0 6 -11 11 -24 11 -14 0 -37 5 -52 11 -16 5 -48 12 -73 15 -24 2 -49 8 -55 13
-6 4 -54 18 -106 30 -227 53 -405 95 -534 127 -77 19 -150 34 -162 34 -24 0
-690 165 -889 220 -60 17 -177 48 -260 70 -82 22 -251 74 -375 117 l-225 78
-1132 3 -1132 2 -87 -117z m1619 -543 c30 -11 67 -32 81 -45 15 -14 31 -25 35
-25 4 0 18 -11 31 -25 22 -24 16 -37 -7 -14 -8 8 -13 7 -18 -2 -5 -7 -4 -10 3
-5 6 3 14 2 17 -4 4 -6 14 -8 24 -5 34 10 113 -91 156 -200 15 -38 32 -76 38
-83 20 -25 -2 -23 -24 2 -25 28 -52 35 -43 11 4 -8 13 -15 20 -15 8 0 20 -11
26 -25 6 -14 15 -25 20 -25 14 0 9 -54 -8 -78 -18 -27 -28 -27 -54 -5 -23 20
-26 43 -6 43 24 0 26 14 5 40 -16 20 -18 21 -12 5 5 -17 3 -16 -15 5 -17 20
-21 22 -22 8 0 -10 -7 -16 -17 -15 -13 1 -18 10 -19 34 0 18 -7 44 -14 58 -11
21 -12 30 -2 45 7 11 12 38 12 60 0 32 -7 48 -32 75 -46 48 -75 53 -114 17
-17 -16 -47 -35 -65 -42 -19 -7 -43 -20 -53 -29 -11 -9 -16 -10 -12 -3 7 12
-7 68 -29 112 -14 28 -7 58 20 80 12 10 18 11 24 2 7 -11 132 -45 139 -37 2 2
-9 11 -25 21 -15 10 -37 25 -48 35 -27 22 -106 33 -98 13 6 -17 -6 -18 -28 -1
-9 7 -14 18 -12 25 7 18 65 15 126 -8z m-288 -488 c2 -7 9 -10 15 -7 6 4 24
-1 42 -9 17 -9 41 -16 53 -16 12 0 30 -9 39 -19 10 -10 33 -22 52 -26 19 -3
38 -13 41 -20 3 -8 9 -13 13 -10 11 7 60 -16 60 -27 0 -5 5 -6 10 -3 6 3 10 1
10 -4 0 -6 9 -11 20 -11 28 0 70 -43 71 -72 0 -22 1 -22 10 -3 7 16 8 13 4
-14 -4 -29 -3 -32 10 -21 13 10 15 9 15 -9 0 -11 5 -21 11 -21 11 0 7 21 -17
79 -13 32 -21 211 -9 199 4 -3 7 -41 8 -84 2 -68 7 -90 39 -156 20 -42 48 -93
62 -114 19 -28 23 -42 15 -55 -6 -12 -5 -20 3 -25 6 -4 8 -3 4 4 -3 6 -2 13 3
17 6 3 27 -11 49 -32 21 -21 53 -50 72 -65 19 -15 26 -25 16 -21 -13 4 -17 3
-12 -5 7 -12 83 -37 104 -33 6 1 12 -7 12 -17 0 -10 8 -34 17 -53 23 -45 38
-396 23 -515 -13 -99 -30 -137 -78 -169 -42 -28 -72 -34 -52 -10 6 8 9 19 5
26 -6 8 -10 7 -16 -2 -6 -10 -9 -8 -9 9 0 17 -6 22 -26 22 -21 0 -25 4 -19 18
12 33 23 105 17 121 -11 31 -37 58 -52 53 -13 -5 -13 -3 -1 11 12 15 11 17 -7
17 -12 0 -24 5 -28 11 -4 7 -1 10 7 7 8 -3 20 2 28 10 13 13 12 17 -7 32 -13
11 -31 16 -47 13 -29 -6 -36 -14 -40 -48 -1 -13 -10 -36 -19 -50 -20 -31 -118
-110 -164 -133 -32 -15 -34 -15 -43 1 -6 9 -22 17 -37 18 -23 0 -24 1 -7 8 18
7 17 8 -7 14 -14 4 -34 10 -44 14 -11 4 -15 3 -10 -5 3 -6 2 -13 -4 -17 -15
-9 -8 44 7 57 7 6 13 17 13 24 0 8 9 19 20 26 24 15 27 63 6 84 -17 17 -29 4
-15 -16 15 -25 10 -58 -10 -65 -31 -10 -54 -43 -63 -93 -18 -93 -20 -102 -34
-102 -8 0 -14 -4 -14 -10 0 -5 -14 -10 -31 -10 -25 0 -41 12 -87 63 -122 134
-208 213 -262 240 -54 26 -59 27 -220 26 -229 -2 -230 -1 -230 16 0 11 -7 14
-23 10 -14 -4 -30 1 -44 15 -12 11 -26 20 -30 20 -5 0 -25 16 -46 36 -27 27
-37 45 -37 68 0 17 -5 48 -11 69 -9 33 -8 41 8 52 13 10 20 10 26 2 13 -21 39
24 34 58 -3 18 1 39 9 50 8 11 14 43 14 75 0 31 3 60 7 64 10 9 11 46 2 52
-16 9 3 33 32 39 37 8 38 25 2 25 l-27 0 22 16 c12 8 30 14 40 13 24 -4 62 19
57 34 -3 6 13 25 35 41 22 17 40 37 40 46 0 18 36 43 50 35 6 -4 10 -2 10 2 0
5 16 17 35 27 19 10 44 28 55 38 28 26 39 15 14 -14 -18 -20 -17 -20 14 2 17
13 32 29 32 36 0 7 8 10 22 6 14 -3 19 -1 14 6 -5 8 -2 10 9 6 8 -4 26 1 39 9
18 12 26 13 35 4 9 -9 16 -8 32 1 11 7 33 11 47 8 15 -3 50 0 77 8 63 17 113
16 120 -2z m3946 -165 c19 -7 34 -17 32 -24 -2 -6 4 -10 14 -9 14 1 17 -5 15
-23 -3 -18 0 -22 12 -18 9 4 16 3 16 -2 0 -5 -37 -13 -82 -19 -179 -24 -409
-64 -520 -91 -65 -15 -118 -24 -118 -20 0 5 8 9 18 9 9 0 35 7 57 16 l40 15
-36 -5 c-37 -4 -69 6 -51 18 6 3 16 5 24 3 7 -2 10 -2 6 0 -24 14 11 50 38 41
5 -2 10 1 11 6 2 14 26 26 51 26 24 0 52 21 52 38 0 10 69 23 132 26 20 0 34
4 32 8 -12 18 206 23 257 5z m-3349 -89 c2 -13 11 -24 20 -26 21 -4 88 -64 88
-79 0 -6 12 -20 26 -30 17 -13 25 -28 26 -51 1 -18 5 -32 10 -32 5 0 6 5 2 11
-4 7 -1 10 7 7 8 -3 13 -13 11 -22 -2 -9 4 -19 13 -22 9 -4 14 -13 11 -20 -6
-15 15 -14 26 1 5 6 8 5 8 -3 0 -18 -25 -25 -64 -18 -47 9 -160 92 -152 112 3
8 2 13 -3 10 -12 -8 -48 34 -67 79 -9 22 -19 42 -23 45 -13 10 -31 60 -21 60
6 0 10 -6 11 -12 0 -10 2 -10 6 0 4 10 8 10 21 0 13 -11 15 -10 10 9 -5 20 -3
21 12 13 10 -6 20 -20 22 -32z m3663 -98 c3 -5 0 -10 -7 -11 -7 0 -4 -4 7 -9
11 -5 15 -9 8 -9 -7 -1 -10 -8 -6 -18 5 -15 4 -16 -8 -5 -11 10 -20 5 -51 -30
-27 -31 -34 -45 -27 -55 8 -9 7 -17 -4 -28 -17 -17 -37 -20 -37 -6 0 19 -37
-2 -48 -27 -7 -17 -9 -19 -6 -5 3 12 1 24 -4 27 -6 3 -5 27 1 57 15 76 70 129
131 129 25 0 48 -4 51 -10z m-2362 -84 c48 -8 109 -24 135 -36 95 -44 97 -45
78 -48 -9 -2 -36 6 -58 17 -23 11 -44 18 -47 14 -4 -3 0 -8 7 -10 9 -4 10 -9
3 -17 -8 -9 -1 -12 25 -13 42 -1 40 1 47 -45 l6 -38 -22 20 c-15 14 -35 20
-69 20 -28 0 -48 5 -48 11 0 7 10 9 25 5 14 -4 25 -2 25 4 0 5 -12 10 -27 10
-22 0 -25 2 -13 10 12 8 9 10 -12 10 -16 0 -28 4 -28 9 0 6 -10 10 -22 10 -51
1 -58 3 -58 13 0 7 23 8 68 4 60 -6 65 -5 47 8 -11 8 -47 17 -80 21 -33 5 -73
14 -90 21 -29 13 -29 13 -5 14 14 0 65 -6 113 -14z m-250 -147 c23 -1 51 -1
62 0 15 2 17 0 6 -7 -15 -11 2 -27 18 -17 6 3 14 -3 20 -12 6 -10 11 -12 11
-5 0 8 15 12 43 12 40 0 45 -3 66 -40 22 -40 51 -54 51 -25 0 8 4 15 9 15 14
0 33 -28 26 -40 -3 -5 -1 -10 4 -10 6 0 11 -7 11 -15 0 -9 7 -18 15 -21 30
-12 14 -24 -30 -24 l-44 0 5 -52 5 -53 -21 28 c-16 19 -28 26 -41 22 -10 -4
-19 -2 -19 3 0 6 -18 13 -40 17 -22 4 -40 11 -40 16 0 5 -5 9 -11 9 -6 0 -17
7 -25 15 -9 8 -26 15 -39 15 -13 0 -30 6 -38 14 -19 20 -84 46 -113 46 -13 0
-28 9 -34 20 -11 21 -4 70 11 70 5 0 9 9 9 19 0 16 8 20 38 23 23 2 38 -2 40
-9 2 -8 21 -13 45 -14z m2517 -294 c0 -8 4 -15 9 -15 19 0 58 -45 53 -60 -4
-11 1 -10 16 4 16 13 25 16 34 8 7 -5 30 -10 51 -10 44 0 67 -16 67 -46 0 -16
2 -18 9 -7 6 9 16 11 27 7 16 -6 16 -8 4 -16 -16 -10 -8 -14 23 -10 13 1 18
-4 17 -17 -4 -32 0 -40 18 -39 9 1 17 -2 17 -5 0 -18 40 -49 57 -43 14 4 18 0
18 -18 0 -24 20 -56 53 -86 21 -20 22 -33 2 -26 -9 4 -15 0 -15 -9 0 -10 -7
-13 -20 -10 -30 8 -24 -16 7 -28 17 -6 28 -6 32 0 10 16 33 -4 29 -25 -2 -10
-14 -21 -28 -24 -16 -4 -25 -13 -26 -25 -1 -11 -2 -24 -4 -30 -1 -5 -1 -18 0
-29 2 -21 -30 -86 -42 -86 -5 0 -8 -11 -8 -23 0 -13 -9 -32 -21 -43 -17 -15
-23 -16 -40 -6 -23 15 -26 -2 -4 -25 19 -19 14 -38 -9 -38 -10 0 -22 -8 -28
-18 -7 -13 -17 -17 -34 -13 -15 4 -24 2 -24 -5 0 -8 -4 -8 -13 0 -10 7 -17 7
-24 0 -16 -16 -29 -4 -37 32 -6 31 -6 31 -31 15 -13 -9 -28 -16 -32 -16 -4 0
-2 4 5 9 11 6 7 13 -16 29 -19 14 -32 18 -39 11 -6 -6 -20 -4 -41 6 -41 21
-47 31 -25 45 16 9 15 10 -7 8 -18 -2 -28 -12 -35 -34 -6 -17 -16 -38 -22 -46
-7 -8 -10 -18 -6 -21 3 -4 1 -7 -5 -7 -8 0 -11 12 -7 38 35 258 37 282 31 505
-4 145 -2 227 4 227 6 0 10 -8 10 -19 0 -14 6 -17 25 -13 14 2 25 9 25 14 0 5
-4 7 -9 4 -5 -3 -8 6 -8 19 0 14 3 25 8 25 5 0 9 -7 9 -15z m-4921 -488 c12 3
34 0 47 -8 20 -10 27 -10 33 -1 6 10 15 10 37 2 17 -7 49 -8 78 -4 126 17 141
13 138 -36 0 -9 6 -6 17 9 16 21 22 23 50 13 17 -6 31 -9 31 -6 0 3 10 -4 22
-15 17 -16 19 -23 9 -35 -10 -11 -9 -16 5 -24 23 -13 27 -127 4 -127 -8 0 -23
-8 -32 -17 -24 -24 -136 -28 -203 -8 -16 5 -43 12 -60 16 -27 6 -28 7 -10 14
13 6 15 9 5 9 -8 1 -26 4 -40 7 -21 5 -22 4 -10 -6 12 -10 12 -11 -5 -4 -11 4
-30 8 -42 8 -11 1 -19 4 -17 8 5 7 -29 20 -42 16 -16 -4 -54 13 -49 22 3 5 0
12 -6 16 -8 4 -9 3 -5 -4 10 -16 9 -16 -79 22 -47 21 -93 49 -118 74 l-40 41
54 15 c30 9 65 25 78 35 23 18 25 18 76 -10 33 -17 61 -26 74 -22z m3271 -28
c0 -5 12 -14 28 -20 26 -10 26 -11 8 -25 -11 -8 -20 -23 -21 -34 -1 -11 -11
-31 -23 -43 -12 -13 -22 -29 -22 -36 0 -7 -4 -10 -9 -6 -5 3 -12 1 -16 -5 -3
-5 2 -10 12 -10 34 -1 -41 -27 -82 -28 -61 -2 -72 4 -78 49 -6 47 12 90 47
108 13 7 29 24 36 37 10 17 23 24 54 26 47 4 66 0 66 -13z m1839 -948 c20 -10
51 -25 69 -31 38 -15 82 -47 82 -61 0 -5 -10 -9 -23 -9 -15 0 -29 -9 -37 -25
-16 -30 -5 -47 53 -76 39 -21 61 -19 39 3 -13 13 -16 38 -4 38 4 -1 22 -13 40
-29 l33 -28 -25 -17 c-24 -15 -28 -15 -78 8 -29 14 -78 36 -108 50 -30 14 -75
29 -100 35 -39 9 -88 46 -77 58 3 2 24 -1 48 -7 50 -13 46 -13 117 -4 40 5 52
10 50 22 -4 20 -21 28 -93 43 -33 6 -54 14 -47 16 6 3 12 11 12 19 0 18 5 18
49 -5z"/>
<path d="M1384 2502 c-68 -52 -103 -91 -128 -140 -22 -43 -96 -271 -96 -296 0
-35 74 -82 90 -56 9 13 110 23 110 10 0 -6 5 -8 11 -5 5 4 39 7 75 7 35 0 64
5 64 10 0 5 9 4 19 -2 28 -14 77 -12 90 4 6 8 13 28 16 46 2 17 8 37 13 43 14
18 23 56 28 122 4 44 2 56 -5 45 -6 -8 -11 -24 -11 -34 0 -15 -3 -17 -11 -9
-11 11 3 74 21 98 13 16 2 114 -15 138 -14 20 -15 20 -15 2 0 -18 0 -18 -15 1
-9 12 -14 14 -15 6 0 -7 -4 -11 -8 -8 -5 3 -20 -18 -33 -46 -28 -60 -95 -138
-106 -123 -11 14 -43 18 -43 5 0 -13 -61 -41 -72 -34 -12 7 -10 52 2 59 6 3
10 14 10 25 0 28 41 101 78 137 17 18 32 35 32 38 0 15 -32 0 -86 -43z"/>
<path d="M4321 4016 c5 -5 128 -35 384 -92 110 -25 214 -49 230 -54 17 -5 66
-16 110 -25 44 -9 125 -28 180 -42 89 -22 135 -31 240 -49 17 -3 53 -12 80
-19 28 -8 91 -21 140 -30 50 -9 113 -22 140 -30 28 -8 73 -19 100 -25 28 -6
133 -31 235 -56 241 -59 328 -80 425 -99 44 -9 88 -19 98 -22 13 -3 17 2 17
26 0 25 -5 32 -27 37 -16 3 -50 10 -78 16 -27 6 -68 16 -90 23 -22 7 -65 19
-95 25 -30 7 -86 21 -125 31 -38 10 -124 30 -190 44 -66 14 -183 41 -260 59
-77 19 -198 48 -270 65 -71 18 -153 38 -182 46 -29 7 -65 16 -80 18 -15 3 -71
16 -123 29 -52 14 -122 31 -155 38 -33 6 -71 16 -85 20 -14 4 -47 14 -75 21
-27 6 -56 16 -62 22 -7 5 -13 7 -13 5 0 -3 -26 1 -57 8 -52 12 -424 21 -412
10z"/>
</g>
</svg>
